<svg xmlns="http://www.w3.org/2000/svg" width="21" height="20"><path d="M10.5 0A10.259 10.259 0 0121 10a10.259 10.259 0 01-10.5 10A10.259 10.259 0 010 10 10.259 10.259 0 0110.5 0z" fill="#5800ff"/><path d="M11.947 9.74l-2.631-.77a.719.719 0 01.2-1.409h1.619a1.488 1.488 0 01.834.256.38.38 0 00.478-.049l.848-.829a.4.4 0 00-.044-.6 3.447 3.447 0 00-2.111-.729V4.44a.391.391 0 00-.393-.39h-.78a.391.391 0 00-.39.39v1.17h-.059a2.671 2.671 0 00-2.657 2.916 2.791 2.791 0 002.043 2.355l2.5.731a.719.719 0 01-.2 1.409h-1.62a1.488 1.488 0 01-.837-.255.38.38 0 00-.475.049l-.848.829a.4.4 0 00.044.6 3.447 3.447 0 002.109.731v1.17a.391.391 0 00.39.39h.78a.391.391 0 00.39-.39v-1.178a2.754 2.754 0 002.58-1.772 2.677 2.677 0 00-1.77-3.455z" fill="#fff"/></svg>