<svg xmlns="http://www.w3.org/2000/svg" width="22" height="22"><defs><clipPath id="a"><path d="M-3063.278 1536.654h-1.926l3.953 7.745-1.977 4.046h2.329a.909.909 0 00.819-.51l1.391-2.849a1.523 1.523 0 00-.012-1.361l-3.167-6.194a1.56 1.56 0 00-1.41-.877z" transform="translate(3065.204 -1536.654)" fill="none"/></clipPath><clipPath id="b"><path d="M-3064.544 1553.278h1.925l-3.95-7.744 1.975-4.047h-2.327a.9.9 0 00-.817.511l-1.4 2.855a1.526 1.526 0 00.012 1.361l3.164 6.2a1.583 1.583 0 001.418.864z" transform="translate(3069.289 -1541.487)" fill="none"/></clipPath></defs><path d="M11-.001a11 11 0 11-11 11 11 11 0 0111-11z" fill="#8a0bff"/><path d="M11.523 2.816H9.597l3.953 7.745-1.977 4.046h2.329a.909.909 0 00.819-.51l1.391-2.849a1.523 1.523 0 00-.012-1.361l-3.167-6.194a1.56 1.56 0 00-1.41-.877z" fill="#fff"/><g clip-path="url(#a)" transform="translate(9.597 2.816)"><path fill="#fff" d="M0 0h6.724v1.45H0zm0 1.45h6.724v.181H0z"/><path fill="#fefefe" d="M0 1.631h6.724v.181H0z"/><path fill="#fdfdfd" d="M0 1.813h6.724v.181H0z"/><path fill="#fcfcfc" d="M0 1.994h6.724v.181H0z"/><path fill="#fbfbfb" d="M0 2.176h6.724v.181H0z"/><path fill="#fafafa" d="M0 2.357h6.724v.181H0z"/><path fill="#f9f9f9" d="M0 2.539h6.724v.181H0z"/><path fill="#f8f8f8" d="M0 2.72h6.724v.181H0z"/><path fill="#f7f7f7" d="M0 2.901h6.724v.181H0z"/><path fill="#f6f6f6" d="M0 3.083h6.724v.181H0z"/><path fill="#f5f5f5" d="M0 3.264h6.724v.181H0z"/><path fill="#f4f4f4" d="M0 3.446h6.724v.181H0z"/><path fill="#f3f3f3" d="M0 3.627h6.724v.181H0z"/><path fill="#f2f2f2" d="M0 3.808h6.724v.181H0z"/><path fill="#f1f1f1" d="M0 3.99h6.724v.181H0z"/><path fill="#f0f0f0" d="M0 4.171h6.724v.181H0z"/><path fill="#efefef" d="M0 4.353h6.724v.181H0z"/><path fill="#eee" d="M0 4.534h6.724v.181H0z"/><path fill="#ededed" d="M0 4.715h6.724v.181H0z"/><path fill="#ececec" d="M0 4.897h6.724v.181H0z"/><path fill="#ebebeb" d="M0 5.078h6.724v.181H0z"/><path fill="#eaeaea" d="M0 5.26h6.724v.181H0z"/><path fill="#e9e9e9" d="M0 5.441h6.724v.181H0z"/><path fill="#e8e8e8" d="M0 5.623h6.724v.181H0z"/><path fill="#e7e7e7" d="M0 5.804h6.724v.181H0z"/><path fill="#e6e6e6" d="M0 5.985h6.724v.181H0z"/><path fill="#e5e5e5" d="M0 6.167h6.724v.181H0z"/><path fill="#e4e4e4" d="M0 6.348h6.724v.181H0z"/><path fill="#e3e3e3" d="M0 6.53h6.724v.181H0z"/><path fill="#e1e1e1" d="M0 6.711h6.724v.181H0z"/><path fill="#e0e0e0" d="M0 6.892h6.724v.181H0z"/><path fill="#dfdfdf" d="M0 7.074h6.724v.181H0z"/><path fill="#dedede" d="M0 7.255h6.724v.181H0z"/><path fill="#ddd" d="M0 7.437h6.724v.181H0z"/><path fill="#dcdcdc" d="M0 7.618h6.724v.181H0z"/><path fill="#dbdbdb" d="M0 7.8h6.724v.181H0z"/><path fill="#dadada" d="M0 7.981h6.724v.181H0z"/><path fill="#d9d9d9" d="M0 8.162h6.724v.181H0z"/><path fill="#d8d8d8" d="M0 8.344h6.724v.181H0z"/><path fill="#d7d7d7" d="M0 8.525h6.724v.181H0z"/><path fill="#d6d6d6" d="M0 8.707h6.724v.181H0z"/><path fill="#d5d5d5" d="M0 8.888h6.724v.181H0z"/><path fill="#d4d4d4" d="M0 9.069h6.724v.181H0z"/><path fill="#d3d3d3" d="M0 9.251h6.724v.181H0z"/><path fill="#d2d2d2" d="M0 9.432h6.724v.181H0z"/><path fill="#d1d1d1" d="M0 9.614h6.724v.181H0z"/><path fill="#d0d0d0" d="M0 9.795h6.724v.181H0z"/><path fill="#cfcfcf" d="M0 9.977h6.724v.181H0z"/><path fill="#cecece" d="M0 10.158h6.724v.181H0z"/><path fill="#cdcdcd" d="M0 10.339h6.724v.181H0z"/><path fill="#ccc" d="M0 10.521h6.724v.181H0z"/><path fill="#cbcbcb" d="M0 10.702h6.724v.181H0z"/><path fill="#cacaca" d="M0 10.884h6.724v.181H0z"/><path fill="#c9c9c9" d="M0 11.065h6.724v.181H0z"/><path fill="#c8c8c8" d="M0 11.246h6.724v.181H0z"/><path fill="#c7c7c7" d="M0 11.428h6.724v.181H0z"/><path d="M6.723 11.794H-.001v-.18h6.724zm-3.387-.003z" fill="#c6c6c6"/></g><path d="M12.944 3.691c1.581 3.087 1.7 4.655.617 6.872l-1.978 4.044h2.33a.908.908 0 00.819-.51l1.392-2.847a1.522 1.522 0 00-.013-1.361z" fill="#fff"/><path d="M16.11 9.881l-.893-1.744a5.733 5.733 0 01-.7 2.971l-1.7 3.486h1.1a.9.9 0 00.817-.509l1.39-2.845a1.5 1.5 0 00-.014-1.359z" fill="#fff" opacity=".42"/><g clip-path="url(#b)" transform="translate(5.73 7.392)"><path d="M6.522 0v.026L-.054.172V0z" fill="#c7c7c7"/><path fill="#c8c8c8" d="M-.056.172L6.522.026l.005.2-6.579.147z"/><path fill="#c9c9c9" d="M-.056.373L6.526.227l.005.2-6.583.147z"/><path fill="#cacaca" d="M-.056.574L6.531.428l.005.2-6.588.147z"/><path fill="#cbcbcb" d="M-.056.774L6.535.628l.005.2-6.592.147z"/><path fill="#ccc" d="M-.056.975L6.54.828l.005.201-6.597.147z"/><path fill="#cdcdcd" d="M-.056 1.176l6.6-.147.005.201-6.6.147z"/><path fill="#cecece" d="M-.056 1.376l6.605-.147.005.201-6.606.147z"/><path fill="#cfcfcf" d="M-.056 1.577l6.61-.147.004.201-6.61.147z"/><path fill="#d0d0d0" d="M-.056 1.778l6.614-.147.005.201-6.615.147z"/><path fill="#d1d1d1" d="M-.056 1.978l6.618-.147.005.2-6.619.148z"/><path fill="#d2d2d2" d="M-.056 2.179l6.622-.147.005.2-6.623.148z"/><path fill="#d3d3d3" d="M-.056 2.38l6.627-.147.005.2-6.628.148z"/><path fill="#d4d4d4" d="M-.056 2.581l6.631-.147.005.2-6.632.148z"/><path fill="#d5d5d5" d="M-.056 2.781l6.636-.147.005.2-6.637.148z"/><path fill="#d6d6d6" d="M-.056 2.982l6.64-.148.005.201-6.64.148z"/><path fill="#d7d7d7" d="M-.056 3.183l6.645-.148.005.201-6.646.148z"/><path fill="#d8d8d8" d="M-.056 3.383l6.65-.148.004.201-6.65.148z"/><path fill="#d9d9d9" d="M-.056 3.584l6.654-.148.005.201-6.655.148z"/><path fill="#dadada" d="M-.056 3.785l6.658-.148.005.201-6.659.148z"/><path fill="#dbdbdb" d="M-.056 3.985l6.663-.148.005.2-6.664.149z"/><path fill="#dcdcdc" d="M-.056 4.186l6.667-.148.005.2-6.668.149z"/><path fill="#ddd" d="M-.056 4.387l6.672-.148.005.2-6.673.149z"/><path fill="#dedede" d="M-.056 4.588L6.62 4.44l.005.2-6.677.149z"/><path fill="#dfdfdf" d="M-.056 4.788l6.68-.148.005.2-6.68.149z"/><path fill="#e0e0e0" d="M-.056 4.989l6.685-.149.005.201-6.686.149z"/><path fill="#e1e1e1" d="M-.056 5.19l6.69-.149.004.201-6.69.149z"/><path fill="#e3e3e3" d="M-.056 5.39l6.694-.149.005.201-6.695.149z"/><path fill="#e4e4e4" d="M-.056 5.591l6.698-.149.005.201-6.699.149z"/><path fill="#e5e5e5" d="M-.056 5.792l6.703-.149.005.201-6.704.149z"/><path fill="#e6e6e6" d="M-.056 5.992l6.707-.149.005.2-6.708.15z"/><path fill="#e7e7e7" d="M-.056 6.193l6.712-.15.005.202-6.713.149z"/><path fill="#e8e8e8" d="M-.056 6.394l6.716-.15.005.202-6.717.149z"/><path fill="#e9e9e9" d="M-.056 6.595l6.721-.15.005.202-6.722.149z"/><path d="M6.669 6.646v.2l-6.723.149v-.2z" fill="#eaeaea"/><path d="M6.67 7.047l-6.723.15v-.2l6.723-.15z" fill="#ebebeb"/><path d="M6.67 7.248l-6.723.15v-.2l6.723-.15z" fill="#ececec"/><path d="M6.67 7.449l-6.723.149v-.2l6.723-.149z" fill="#ededed"/><path d="M6.67 7.65l-6.723.149v-.2L6.67 7.45z" fill="#eee"/><path d="M6.67 7.85l-6.723.149v-.2l6.723-.15z" fill="#efefef"/><path d="M6.67 8.051L-.053 8.2V8l6.723-.149z" fill="#f0f0f0"/><path d="M6.67 8.252l-6.723.149v-.2l6.723-.149z" fill="#f1f1f1"/><path d="M6.67 8.45l-6.723.149v-.2L6.67 8.25z" fill="#f2f2f2"/><path d="M6.67 8.652l-6.723.15v-.2l6.723-.15z" fill="#f3f3f3"/><path d="M6.67 8.854l-6.723.149v-.2l6.723-.149z" fill="#f4f4f4"/><path d="M6.67 9.054l-6.723.149v-.2l6.723-.149z" fill="#f5f5f5"/><path d="M6.67 9.255l-6.723.149v-.2l6.723-.149z" fill="#f6f6f6"/><path d="M6.67 9.455l-6.719.149v-.201l6.723-.149z" fill="#f7f7f7"/><path fill="#f8f8f8" d="M-.05 9.605l6.717-.15.005.202-6.718.149z"/><path fill="#f9f9f9" d="M-.045 9.806l6.715-.148.004.201-6.715.148z"/><path fill="#fafafa" d="M-.041 10.006l6.708-.15.005.202-6.709.149z"/><path fill="#fbfbfb" d="M-.036 10.207l6.706-.148.004.201-6.706.148z"/><path fill="#fcfcfc" d="M-.032 10.407l6.7-.149.004.201-6.7.149z"/><path fill="#fdfdfd" d="M-.028 10.608l6.697-.147.004.2-6.697.148z"/><path fill="#fefefe" d="M-.023 10.808l6.69-.149.005.201-6.69.149z"/><path fill="#fff" d="M-.018 11.009l6.688-.147.004.2-6.688.148z"/><path d="M-.001 11.792l-.013-.582 6.684-.148v.73z" fill="#fff"/></g><path d="M12.944 3.691c1.581 3.087 1.7 4.655.617 6.872l-1.978 4.044h2.33a.908.908 0 00.819-.51l1.392-2.847a1.522 1.522 0 00-.013-1.361zM9.065 18.305c-1.58-3.087-1.7-4.655-.617-6.872l1.978-4.044h-2.33a.909.909 0 00-.819.51l-1.392 2.854a1.526 1.526 0 00.012 1.361z" fill="#fff"/><path d="M11.001 20.908a9.92 9.92 0 01-9.909-9.909 9.92 9.92 0 019.909-9.909 9.92 9.92 0 019.908 9.909 9.92 9.92 0 01-9.908 9.909zm0-19.247A9.349 9.349 0 001.662 11a9.349 9.349 0 009.339 9.339A9.35 9.35 0 0020.341 11a9.35 9.35 0 00-9.34-9.341z" fill="#fff"/><path d="M5.888 12.118l.9 1.744a5.73 5.73 0 01.7-2.971l1.711-3.486h-1.1a.909.909 0 00-.82.51L5.884 10.76a1.5 1.5 0 00.004 1.358z" fill="#fff" opacity=".32"/></svg>