<svg xmlns="http://www.w3.org/2000/svg" width="16.55" height="17.5"><g fill="none" stroke="#afbbc6" stroke-linecap="round" stroke-width="1.5"><path d="M8.275 6.568a2.12 2.12 0 012.048 2.182 2.12 2.12 0 01-2.048 2.182A2.12 2.12 0 016.223 8.75a2.12 2.12 0 012.052-2.182z"/><path d="M13.337 10.932a1.257 1.257 0 00.226 1.324l.041.044a1.52 1.52 0 010 2.058 1.312 1.312 0 01-1.936 0l-.041-.044a1.079 1.079 0 00-1.245-.24 1.2 1.2 0 00-.684 1.1v.124A1.413 1.413 0 018.33 16.75a1.413 1.413 0 01-1.368-1.455v-.065a1.2 1.2 0 00-.739-1.1 1.079 1.079 0 00-1.245.24l-.041.044a1.312 1.312 0 01-1.936 0 1.52 1.52 0 010-2.058l.041-.044a1.257 1.257 0 00.226-1.324 1.13 1.13 0 00-1.033-.727h-.117a1.457 1.457 0 010-2.909h.062a1.136 1.136 0 001.033-.785 1.257 1.257 0 00-.226-1.324l-.037-.042a1.52 1.52 0 010-2.058 1.312 1.312 0 011.936 0l.041.044a1.079 1.079 0 001.245.24h.055a1.2 1.2 0 00.684-1.1v-.122A1.413 1.413 0 018.275.75a1.413 1.413 0 011.368 1.455v.065a1.2 1.2 0 00.684 1.1 1.079 1.079 0 001.245-.24l.041-.044a1.312 1.312 0 011.936 0 1.52 1.52 0 010 2.058l-.041.044a1.257 1.257 0 00-.226 1.324v.058a1.13 1.13 0 001.033.727h.116a1.457 1.457 0 010 2.909h-.061a1.13 1.13 0 00-1.033.726z" stroke-linejoin="round"/></g></svg>