<svg xmlns="http://www.w3.org/2000/svg" width="296" height="103"><g fill="none"><path d="M150.5 11C230.857 11 296 31.595 296 57s-65.143 46-145.5 46S5 82.405 5 57s65.143-46 145.5-46z"/><path d="M150.5 13c-19.554 0-38.52 1.21-56.37 3.597-8.57 1.146-16.835 2.564-24.563 4.215-7.642 1.632-14.825 3.506-21.348 5.568-6.501 2.055-12.396 4.314-17.522 6.712-5.132 2.402-9.528 4.96-13.065 7.605-3.524 2.633-6.214 5.365-7.997 8.12C7.887 51.516 7 54.27 7 57s.887 5.482 2.635 8.184c1.783 2.754 4.473 5.486 7.997 8.12 3.537 2.644 7.933 5.202 13.065 7.604 5.126 2.398 11.021 4.657 17.522 6.712 6.523 2.062 13.706 3.936 21.348 5.568 7.728 1.65 15.992 3.069 24.563 4.215C111.98 99.79 130.946 101 150.5 101c19.554 0 38.52-1.21 56.37-3.597 8.57-1.146 16.835-2.564 24.563-4.215 7.642-1.632 14.825-3.506 21.348-5.568 6.501-2.055 12.396-4.314 17.522-6.712 5.132-2.402 9.528-4.96 13.065-7.605 3.524-2.633 6.214-5.365 7.997-8.12C293.113 62.484 294 59.73 294 57s-.887-5.482-2.635-8.184c-1.783-2.754-4.473-5.486-7.997-8.12-3.537-2.644-7.933-5.202-13.065-7.604-5.126-2.398-11.021-4.657-17.522-6.712-6.523-2.062-13.706-3.936-21.348-5.568-7.728-1.65-15.992-3.069-24.563-4.215C189.02 14.21 170.054 13 150.5 13m0-2C230.857 11 296 31.595 296 57s-65.143 46-145.5 46S5 82.405 5 57s65.143-46 145.5-46z" fill="#d400e6"/><path d="M145.5 0C225.857 0 291 20.595 291 46s-65.143 46-145.5 46S0 71.405 0 46 65.143 0 145.5 0z"/><path d="M145.5 2c-19.554 0-38.52 1.21-56.37 3.597-8.57 1.146-16.835 2.564-24.563 4.215-7.642 1.632-14.825 3.506-21.348 5.568-6.501 2.055-12.396 4.314-17.522 6.712-5.132 2.402-9.528 4.96-13.065 7.605-3.524 2.633-6.214 5.365-7.997 8.12C2.887 40.516 2 43.27 2 46s.887 5.482 2.635 8.184c1.783 2.754 4.473 5.486 7.997 8.12 3.537 2.644 7.933 5.202 13.065 7.604 5.126 2.398 11.021 4.657 17.522 6.712 6.523 2.062 13.706 3.936 21.348 5.568 7.728 1.65 15.992 3.069 24.563 4.215C106.98 88.79 125.946 90 145.5 90c19.554 0 38.52-1.21 56.37-3.597 8.57-1.146 16.835-2.564 24.563-4.215 7.642-1.632 14.825-3.506 21.348-5.568 6.501-2.055 12.396-4.314 17.522-6.712 5.132-2.402 9.528-4.96 13.065-7.605 3.524-2.633 6.214-5.365 7.997-8.12C288.113 51.484 289 48.73 289 46s-.887-5.482-2.635-8.184c-1.783-2.754-4.473-5.486-7.997-8.12-3.537-2.644-7.933-5.202-13.065-7.604-5.126-2.398-11.021-4.657-17.522-6.712-6.523-2.062-13.706-3.936-21.348-5.568-7.728-1.65-15.992-3.069-24.563-4.215C184.02 3.21 165.054 2 145.5 2m0-2C225.857 0 291 20.595 291 46s-65.143 46-145.5 46S0 71.405 0 46 65.143 0 145.5 0z" fill="#ac48ff"/></g></svg>