<svg xmlns="http://www.w3.org/2000/svg" width="13.803" height="13.803"><path d="M10.338 9.46a.632.632 0 01.19.446.583.583 0 01-.176.446.632.632 0 01-.446.19.606.606 0 01-.46-.19l-2.559-2.56-2.546 2.546a.623.623 0 01-.452.198.6.6 0 01-.439-.184.583.583 0 01-.176-.446.632.632 0 01.19-.445L6.01 6.915l-2.56-2.56a.615.615 0 01-.183-.452.615.615 0 01.183-.453.583.583 0 01.446-.176.632.632 0 01.445.19l2.56 2.56L9.447 3.48a.657.657 0 01.46-.205.583.583 0 01.445.176.583.583 0 01.177.446.657.657 0 01-.205.46L7.778 6.9z" fill="#fff"/></svg>