<svg xmlns="http://www.w3.org/2000/svg" width="29.786" height="29.786"><defs><linearGradient id="a" x1=".146" y1=".147" x2=".854" y2=".859" gradientUnits="objectBoundingBox"><stop offset="0" stop-color="#4676ed"/><stop offset=".185" stop-color="#436de4"/><stop offset=".487" stop-color="#3b54cd"/><stop offset=".865" stop-color="#2f2da8"/><stop offset="1" stop-color="#2b1e99"/></linearGradient></defs><path d="M62.977 41.578a14.893 14.893 0 10-17.22 14.711V45.882h-3.781v-4.3h3.781V38.3c0-3.732 2.224-5.794 5.626-5.794a22.942 22.942 0 013.334.29v3.665h-1.879a2.153 2.153 0 00-2.427 2.326v2.794h4.131l-.661 4.3h-3.47v10.408a14.9 14.9 0 0012.566-14.711z" transform="translate(-33.191 -26.684)" fill="url(#a)"/><path d="M20.69 19.198l.661-4.3H17.22v-2.799a2.153 2.153 0 012.427-2.326h1.878V6.108a22.942 22.942 0 00-3.334-.29c-3.4 0-5.626 2.062-5.626 5.794v3.282h-3.78v4.3h3.784v10.411a15.023 15.023 0 004.654 0V19.198z" fill="#fff"/></svg>