<svg xmlns="http://www.w3.org/2000/svg" width="71.893" height="71.893"><path d="M42.687 13.48h-26.96a2.247 2.247 0 000 4.493h26.96a2.247 2.247 0 000-4.493zM33.7 22.467H15.727a2.247 2.247 0 000 4.493H33.7a2.247 2.247 0 000-4.493z" fill="#651bb4"/><path d="M49.426 0H8.987A9 9 0 000 8.987V53.92a2.245 2.245 0 001.294 2.035 2.279 2.279 0 00.953.211 2.246 2.246 0 001.438-.521L16.54 44.933h32.886a9 9 0 008.987-8.987V8.987A9 9 0 0049.426 0zm4.494 35.947a4.5 4.5 0 01-4.493 4.493h-33.7a2.244 2.244 0 00-1.438.521l-9.8 8.164V8.987a4.5 4.5 0 014.498-4.494h40.44a4.5 4.5 0 014.493 4.494z" fill="#651bb4"/><path d="M62.906 17.973a2.247 2.247 0 000 4.493 4.5 4.5 0 014.493 4.493v38.014l-7.585-6.066a2.264 2.264 0 00-1.4-.49H26.96a4.5 4.5 0 01-4.493-4.493v-2.251a2.247 2.247 0 00-4.493 0v2.247a9 9 0 008.987 8.987h30.662l10.618 8.5a2.248 2.248 0 003.653-1.757V26.96a9 9 0 00-8.988-8.987z" fill="#651bb4"/></svg>