<svg xmlns="http://www.w3.org/2000/svg" width="71.11" height="62.222"><g fill="#651bb4"><path d="M66.666 57.778H4.444V42.934A15.778 15.778 0 010 39.756v18.022a4.444 4.444 0 004.444 4.444h62.222a4.444 4.444 0 004.444-4.444V39.756a14.978 14.978 0 01-4.444 3.156z"/><path d="M51.111 45.334a2.222 2.222 0 002.222-2.222V30.979h-4.444v4.577H26.666V40h22.222v3.111a2.222 2.222 0 002.222 2.222z"/><path d="M68.888 8.889h-20v-3.6A5.378 5.378 0 0043.444 0H27.666a5.378 5.378 0 00-5.444 5.289v3.6h-20A2.222 2.222 0 000 11.111v17.778A11.111 11.111 0 0011.111 40h6.667v3.111a2.222 2.222 0 104.444 0V30.978h-4.444v4.578h-6.667a6.667 6.667 0 01-6.667-6.667V13.334h62.222V28.89a6.667 6.667 0 01-6.667 6.666h-2.222V40h2.222A11.111 11.111 0 0071.11 28.89V11.112a2.222 2.222 0 00-2.222-2.222zm-24.444 0H26.666V5.4a1 1 0 011-.956h15.8a.956.956 0 01.978.933z"/></g></svg>