<svg xmlns="http://www.w3.org/2000/svg" width="79.119" height="79.119"><g fill="#651bb4"><path d="M7.235 78.439a2.318 2.318 0 003.278 0L41.15 47.803l.483 4.046a2.318 2.318 0 004.158 1.114l7.742-10.348 11.877 5.091a2.318 2.318 0 003.044-3.044l-5.091-11.878 10.348-7.742a2.318 2.318 0 00-1.111-4.157l-12.833-1.53-1.53-12.833a2.318 2.318 0 00-4.158-1.114l-7.744 10.348-11.879-5.091a2.318 2.318 0 00-3.044 3.044L36.5 25.587l-10.345 7.742a2.318 2.318 0 001.114 4.158l4.046.483L.679 68.605a2.318 2.318 0 000 3.278zm33.506-50.233a2.318 2.318 0 00.742-2.769l-3.527-8.229 8.229 3.527a2.318 2.318 0 002.769-.742l5.363-7.169 1.06 8.89a2.318 2.318 0 002.023 2.027l8.889 1.06-7.169 5.363a2.318 2.318 0 00-.742 2.769l3.527 8.229-8.229-3.527a2.318 2.318 0 00-2.769.742l-5.363 7.168-1.06-8.89a2.318 2.318 0 00-2.027-2.027l-8.89-1.06zm-3.568 10.461l2.929.349.349 2.929L8.874 73.522 5.6 70.244z"/><path d="M67.962 7.878l-3.278 3.278a2.318 2.318 0 003.278 3.278l3.278-3.278a2.318 2.318 0 10-3.278-3.278zM42.134.079a2.318 2.318 0 00-1.639 2.839l1.2 4.478A2.318 2.318 0 0046.174 6.2l-1.2-4.478a2.318 2.318 0 00-2.84-1.643zm13.198 49.257a2.318 2.318 0 00-1.639 2.839l1.2 4.478a2.318 2.318 0 004.478-1.2l-1.2-4.478a2.318 2.318 0 00-2.839-1.639zM23.666 19.748a2.318 2.318 0 10-1.2 4.478l4.478 1.2a2.318 2.318 0 001.2-4.478zm53.735 14.398l-4.478-1.2a2.318 2.318 0 10-1.2 4.478l4.478 1.2a2.318 2.318 0 101.2-4.478z"/></g></svg>