<svg xmlns="http://www.w3.org/2000/svg" width="72" height="53"><path d="M2.8 36.375V42h5.625L25 25.425 19.375 19.8zm26.55-15.3a1.45 1.45 0 000-2.1l-3.525-3.525a1.45 1.45 0 00-2.1 0l-2.775 2.775 5.625 5.625zM69.5 53h-67A2.5 2.5 0 010 50.5 2.5 2.5 0 012.5 48h67a2.5 2.5 0 012.5 2.5 2.5 2.5 0 01-2.5 2.5zm0-24h-28a2.5 2.5 0 01-2.5-2.5 2.5 2.5 0 012.5-2.5h28a2.5 2.5 0 012.5 2.5 2.5 2.5 0 01-2.5 2.5zm0-24h-28A2.5 2.5 0 0139 2.5 2.5 2.5 0 0141.5 0h28A2.5 2.5 0 0172 2.5 2.5 2.5 0 0169.5 5z" fill="#651bb4"/></svg>