<svg xmlns="http://www.w3.org/2000/svg" width="98.896" height="50.348"><path d="M28.516.34v23.8h-4.424V4.046H19.06V.34zM43.17 24.48a9.214 9.214 0 01-5.1-1.445 9.758 9.758 0 01-3.536-4.216 15.449 15.449 0 01-1.292-6.579 15.449 15.449 0 011.292-6.579 9.758 9.758 0 013.536-4.216A9.214 9.214 0 0143.17 0a9.3 9.3 0 015.122 1.445 9.715 9.715 0 013.553 4.216 15.449 15.449 0 011.287 6.579 15.449 15.449 0 01-1.292 6.579 9.715 9.715 0 01-3.548 4.216 9.3 9.3 0 01-5.122 1.445zm0-3.842a4.668 4.668 0 004.029-2.108q1.479-2.108 1.479-6.29t-1.479-6.29a4.668 4.668 0 00-4.029-2.11 4.638 4.638 0 00-4 2.108q-1.478 2.11-1.478 6.292t1.479 6.29a4.638 4.638 0 003.999 2.11zm22.882 3.842a9.214 9.214 0 01-5.1-1.445 9.758 9.758 0 01-3.536-4.216 15.449 15.449 0 01-1.292-6.579 15.449 15.449 0 011.292-6.579 9.758 9.758 0 013.536-4.216A9.214 9.214 0 0166.052 0a9.3 9.3 0 015.117 1.445 9.715 9.715 0 013.553 4.216 15.449 15.449 0 011.292 6.579 15.449 15.449 0 01-1.292 6.579 9.715 9.715 0 01-3.553 4.216 9.3 9.3 0 01-5.117 1.445zm0-3.842a4.668 4.668 0 004.029-2.108q1.479-2.108 1.479-6.29t-1.479-6.29a4.668 4.668 0 00-4.029-2.11 4.638 4.638 0 00-3.995 2.11q-1.479 2.108-1.479 6.29t1.479 6.29a4.638 4.638 0 003.995 2.11zm22.882 3.842a9.214 9.214 0 01-5.1-1.445 9.758 9.758 0 01-3.536-4.216 15.449 15.449 0 01-1.292-6.579 15.449 15.449 0 011.292-6.579 9.758 9.758 0 013.536-4.216A9.214 9.214 0 0188.934 0a9.3 9.3 0 015.117 1.445 9.715 9.715 0 013.553 4.216 15.449 15.449 0 011.288 6.579 15.449 15.449 0 01-1.292 6.579 9.715 9.715 0 01-3.553 4.216 9.3 9.3 0 01-5.113 1.445zm0-3.842a4.668 4.668 0 004.029-2.108q1.479-2.108 1.479-6.29t-1.479-6.29a4.668 4.668 0 00-4.029-2.11 4.638 4.638 0 00-3.995 2.108q-1.479 2.108-1.479 6.29t1.479 6.29a4.638 4.638 0 003.995 2.112zM24.428 40.483H14.56v9.865h-4.7v-9.865H0v-4.7h9.865v-9.86h4.695v9.865h9.865z" fill="#651bb4"/></svg>