<svg xmlns="http://www.w3.org/2000/svg" width="33.712" height="70.004"><path d="M14.362 0h5.59v8.858a31.351 31.351 0 0110.75 3.01l-2.236 5.852a26.334 26.334 0 00-5.848-2.322 22.618 22.618 0 00-5.5-.688 11.619 11.619 0 00-6.88 1.892 6.592 6.592 0 00-2.666 5.762 5.791 5.791 0 002.408 5.16 25.491 25.491 0 006.364 2.924l3.956 1.29q6.622 2.15 10.019 5.633a12.33 12.33 0 013.4 8.987 13.385 13.385 0 01-1.2 5.805 14.037 14.037 0 01-3.225 4.386 15.806 15.806 0 01-4.773 2.967 21.877 21.877 0 01-5.848 1.462v9.03h-5.59v-9.03a28.765 28.765 0 01-6.665-1.032 33.518 33.518 0 01-6.235-2.58l2.741-5.852a24.77 24.77 0 006.966 2.795 28.265 28.265 0 005.934.731 16.1 16.1 0 004-.473 9.985 9.985 0 003.268-1.462 7.065 7.065 0 002.232-2.537 7.629 7.629 0 00.817-3.612 6.442 6.442 0 00-2.537-5.5 25.523 25.523 0 00-7.439-3.44l-3.953-1.296a30.659 30.659 0 01-4.988-2.019 14.815 14.815 0 01-3.827-2.795 11.754 11.754 0 01-3.4-8.6q0-6.536 3.87-10.234t10.492-4.3z" fill="#651bb4"/></svg>