<svg xmlns="http://www.w3.org/2000/svg" width="57.807" height="53.361"><path d="M41.91 0a17.1 17.1 0 00-13.007 6.1A17.1 17.1 0 0015.897 0a15.716 15.716 0 00-15.9 15.994c0 11.047 9.824 19.913 24.707 33.587l4.2 3.78 4.2-3.78c14.879-13.674 24.703-22.539 24.703-33.587A15.716 15.716 0 0041.91 0zM30.682 45.76l-.584.542-1.2 1.084-1.2-1.084-.573-.542c-7-6.434-13.062-11.992-17.05-16.953-3.891-4.822-5.614-8.768-5.614-12.812a11.558 11.558 0 013.293-8.24 11.309 11.309 0 018.143-3.307 12.745 12.745 0 019.6 4.516l3.4 4.044 3.4-4.044a12.7 12.7 0 019.6-4.516 11.365 11.365 0 018.157 3.307 11.582 11.582 0 013.293 8.24c0 4.03-1.737 7.99-5.614 12.812-3.988 4.96-10.033 10.519-17.051 16.953z" fill="#651bb4"/></svg>