<svg xmlns="http://www.w3.org/2000/svg" width="60.484" height="60.484"><path d="M5.531 59.966a1.772 1.772 0 002.506 0l23.421-23.423.369 3.093a1.772 1.772 0 003.178.852l5.918-7.911L50 36.471a1.772 1.772 0 002.331-2.328l-3.892-9.08 7.911-5.92a1.772 1.772 0 00-.852-3.178l-9.81-1.17-1.17-9.81a1.772 1.772 0 00-3.178-.852l-5.918 7.91-9.081-3.892a1.772 1.772 0 00-2.327 2.327l3.892 9.081-7.911 5.918a1.772 1.772 0 00.852 3.178l3.093.369L.519 52.443a1.772 1.772 0 000 2.506zm25.614-38.4a1.772 1.772 0 00.567-2.123l-2.7-6.291 6.291 2.7a1.772 1.772 0 002.117-.567l4.1-5.48.811 6.8a1.772 1.772 0 001.55 1.55l6.8.811-5.48 4.1a1.772 1.772 0 00-.567 2.117l2.7 6.291-6.291-2.7a1.772 1.772 0 00-2.117.567l-4.1 5.48-.81-6.8a1.772 1.772 0 00-1.55-1.55l-6.8-.811zm-2.728 8l2.239.267.267 2.239L6.784 56.207l-2.506-2.506z" fill="#651bb4"/><path d="M51.955 6.023l-2.506 2.506a1.772 1.772 0 002.506 2.506l2.506-2.506a1.772 1.772 0 10-2.506-2.506zM32.21.061a1.772 1.772 0 00-1.253 2.17l.917 3.423a1.772 1.772 0 003.423-.917l-.917-3.423A1.772 1.772 0 0032.21.061zM42.3 37.716a1.772 1.772 0 00-1.253 2.17l.917 3.423a1.772 1.772 0 003.423-.917l-.917-3.423a1.772 1.772 0 00-2.17-1.253zM18.091 15.097a1.772 1.772 0 10-.917 3.423l3.423.917a1.772 1.772 0 00.917-3.423zm41.08 11.007l-3.423-.917a1.772 1.772 0 10-.917 3.423l3.423.917a1.772 1.772 0 10.917-3.423z" fill="#651bb4"/></svg>