<svg xmlns="http://www.w3.org/2000/svg" width="18.289" height="20.171"><g fill="#101010"><path d="M16.369 8.581a.754.754 0 00-.34.868 7.5 7.5 0 01-6.079 9.294 2.883 2.883 0 01-.534.046H7.885a5.343 5.343 0 01-2.976-1.113.693.693 0 00-.6-.087l-2.55.822.821-2.55a.705.705 0 00-.079-.59A7.447 7.447 0 014.885 5.022 7.407 7.407 0 018.497 3.9a.677.677 0 00.659-.564v-.013a.692.692 0 00-.707-.8 8.828 8.828 0 00-8.451 8.821 8.82 8.82 0 001.171 4.392L.032 19.268a.689.689 0 00.448.865.688.688 0 00.42 0l3.532-1.137a8.826 8.826 0 0012.051-3.253 8.789 8.789 0 00.821-6.856.587.587 0 00-.862-.346z"/><path d="M9.688 11.348a.862.862 0 01-.862.862.862.862 0 01-.862-.862.862.862 0 01.862-.862.861.861 0 01.861.863zm3.447 0a.862.862 0 01-.862.862.862.862 0 01-.862-.862.862.862 0 01.862-.862.862.862 0 01.861.863zm-6.895 0a.862.862 0 01-.862.862.862.862 0 01-.862-.862.862.862 0 01.862-.862.862.862 0 01.862.862zm7.848-2.944a4.2 4.2 0 01-4.2-4.2 4.2 4.2 0 014.2-4.2 4.2 4.2 0 014.2 4.2 4.207 4.207 0 01-4.2 4.2zm0-7.143a2.942 2.942 0 00-2.942 2.941 2.943 2.943 0 002.942 2.942 2.942 2.942 0 002.942-2.942 2.945 2.945 0 00-2.942-2.942z"/></g></svg>