<svg xmlns="http://www.w3.org/2000/svg" width="16.08" height="18.509"><path d="M8.445.015C9.455 0 10.457.008 11.46 0a4.8 4.8 0 001.35 3.216 5.438 5.438 0 003.27 1.38V7.7a8.254 8.254 0 01-3.239-.748 9.528 9.528 0 01-1.249-.717c-.008 2.252.008 4.5-.015 6.748a5.89 5.89 0 01-1.046 3.042A5.745 5.745 0 015.977 18.5a5.623 5.623 0 01-3.146-.794 5.815 5.815 0 01-2.815-4.4 14.702 14.702 0 01-.008-1.149A5.806 5.806 0 016.74 7c.015 1.141-.031 2.283-.031 3.424a2.646 2.646 0 00-3.378 1.637 3.059 3.059 0 00-.107 1.239 2.625 2.625 0 002.7 2.213 2.591 2.591 0 002.136-1.242 1.779 1.779 0 00.316-.817c.077-1.38.046-2.753.054-4.134.008-3.108-.008-6.208.015-9.308z" fill="#3d057a"/></svg>