<svg xmlns="http://www.w3.org/2000/svg" width="54.961" height="54.961"><path d="M32.633 10.305h-20.61a1.718 1.718 0 000 3.435h20.61a1.718 1.718 0 000-3.435zm-6.87 6.87h-13.74a1.718 1.718 0 000 3.435h13.74a1.718 1.718 0 100-3.435z" fill="#651bb4"/><path d="M37.785 0H6.87A6.877 6.877 0 000 6.87v34.35a1.716 1.716 0 00.989 1.556 1.742 1.742 0 00.728.161 1.717 1.717 0 001.1-.4l9.828-8.189h25.14a6.877 6.877 0 006.87-6.87V6.87A6.877 6.877 0 0037.785 0zm3.435 27.48a3.438 3.438 0 01-3.435 3.435H12.023a1.716 1.716 0 00-1.1.4l-7.488 6.24V6.87A3.438 3.438 0 016.87 3.435h30.915A3.438 3.438 0 0141.22 6.87z" fill="#651bb4"/><path d="M48.09 13.74a1.718 1.718 0 100 3.435 3.438 3.438 0 013.435 3.435v29.057l-5.8-4.637a1.73 1.73 0 00-1.072-.374H20.61a3.438 3.438 0 01-3.435-3.435v-1.718a1.718 1.718 0 10-3.435 0v1.718a6.877 6.877 0 006.87 6.87h23.441l8.117 6.5a1.719 1.719 0 002.793-1.343V20.61a6.877 6.877 0 00-6.871-6.87z" fill="#651bb4"/></svg>