<svg xmlns="http://www.w3.org/2000/svg" width="27.412" height="29.905"><path d="M12.455 29.905a4.678 4.678 0 01-4.673-4.673.935.935 0 111.869 0 2.804 2.804 0 105.607 0 .935.935 0 111.869 0 4.678 4.678 0 01-4.672 4.673zm0 0"/><path d="M22.74 26.167H2.18a2.181 2.181 0 01-1.418-3.838.861.861 0 01.1-.075 8.374 8.374 0 002.876-6.316V12.46a8.733 8.733 0 018.722-8.722 3.754 3.754 0 01.614.037.934.934 0 11-.307 1.843 1.961 1.961 0 00-.308-.011 6.861 6.861 0 00-6.853 6.853v3.478A10.248 10.248 0 011.99 23.75c-.019.015-.035.029-.055.042a.308.308 0 00-.066.193.315.315 0 00.311.311h20.56a.315.315 0 00.312-.311.3.3 0 00-.067-.193l-.054-.042a10.246 10.246 0 01-3.618-7.812v-1.359a.935.935 0 111.869 0v1.359a8.377 8.377 0 002.88 6.321.909.909 0 01.1.072 2.18 2.18 0 01-1.418 3.836zm0 0"/><path d="M21.182 12.46a6.23 6.23 0 116.23-6.23 6.237 6.237 0 01-6.23 6.23zm0-10.591a4.361 4.361 0 104.361 4.361 4.366 4.366 0 00-4.361-4.361zm0 0"/></svg>