<svg xmlns="http://www.w3.org/2000/svg" width="29.786" height="29.786"><defs><linearGradient id="a" x1=".854" y1=".146" x2=".146" y2=".854" gradientUnits="objectBoundingBox"><stop offset=".001" stop-color="#fbe18a"/><stop offset=".209" stop-color="#fcbb45"/><stop offset=".376" stop-color="#f75274"/><stop offset=".524" stop-color="#d53692"/><stop offset=".739" stop-color="#8f39ce"/><stop offset="1" stop-color="#5b4fe9"/></linearGradient></defs><circle cx="14.893" cy="14.893" fill="url(#a)" r="14.893"/><g fill="#fff"><path d="M19.516 9.259a1.024 1.024 0 101.024 1.024 1.024 1.024 0 00-1.024-1.024zm-4.552 1.313a4.3 4.3 0 104.3 4.3 4.305 4.305 0 00-4.3-4.3zm0 7.056a2.755 2.755 0 112.754-2.755 2.758 2.758 0 01-2.754 2.755z"/><path d="M18.375 23.603h-6.968a5.251 5.251 0 01-5.245-5.244v-6.972a5.251 5.251 0 015.245-5.246h6.968a5.251 5.251 0 015.245 5.246v6.972a5.251 5.251 0 01-5.245 5.244zM11.407 7.784a3.607 3.607 0 00-3.6 3.6v6.975a3.606 3.606 0 003.6 3.6h6.968a3.605 3.605 0 003.6-3.6v-6.972a3.606 3.606 0 00-3.6-3.6z"/></g></svg>