<svg xmlns="http://www.w3.org/2000/svg" width="174.72" height="59.817"><defs><linearGradient id="a" x1="13.178" y1="73.084" x2="14.177" y2="73.084" gradientUnits="objectBoundingBox"><stop offset="0" stop-color="#8a0bff"/><stop offset="1" stop-color="#2a0056"/></linearGradient><linearGradient id="b" x1=".796" y1="-.345" x2="1" y2="1.331" gradientUnits="objectBoundingBox"><stop offset="0" stop-color="#8a0bff" stop-opacity="0"/><stop offset=".429" stop-color="#441476"/><stop offset="1" stop-color="#471081"/></linearGradient><linearGradient id="c" x1="19.218" y1="78.294" x2="19.218" y2="79.294" gradientUnits="objectBoundingBox"><stop offset="0" stop-color="#a553ff"/><stop offset=".999" stop-color="#ae38ff"/></linearGradient><linearGradient id="d" x1="13.178" y1="72.308" x2="14.177" y2="72.308" gradientUnits="objectBoundingBox"><stop offset="0" stop-color="#3d0056"/><stop offset="1" stop-color="#ff0ba2"/></linearGradient><linearGradient id="f" x1="19.219" y1="77.616" x2="19.219" y2="78.616" gradientUnits="objectBoundingBox"><stop offset="0" stop-color="#df38ff"/><stop offset="1" stop-color="#ff39ff"/></linearGradient><radialGradient id="e" cx=".286" cy=".431" r=".524" gradientTransform="matrix(1 0 0 1.437 0 -.188)" gradientUnits="objectBoundingBox"><stop offset="0" stop-color="#3d0056"/><stop offset="1" stop-color="#e33fc5"/></radialGradient></defs><path d="M61.837 0H54.8l14.437 28.3-7.219 14.777h8.512a3.364 3.364 0 003-1.863l5.1-10.4a5.59 5.59 0 00-.052-4.967L67.012 3.208A5.76 5.76 0 0061.837 0z" transform="translate(-40.625)" fill="url(#a)"/><path d="M61.837 0H54.8l14.437 28.3-7.219 14.777h8.512a3.364 3.364 0 003-1.863l5.1-10.4a5.59 5.59 0 00-.052-4.967L67.012 3.208A5.76 5.76 0 0061.837 0z" transform="translate(-40.625)" fill="url(#b)"/><path d="M87.867 12.4c5.77 11.28 6.209 17 2.251 25.122L82.9 52.3h8.512a3.364 3.364 0 003-1.863l5.1-10.4a5.59 5.59 0 00-.052-4.967z" transform="translate(-61.455 -9.192)" fill="url(#c)"/><path d="M26.412 3.208c5.77 11.28 6.209 17 2.251 25.122l-7.218 14.778h8.512a3.364 3.364 0 003-1.863l5.1-10.4a5.59 5.59 0 00-.052-4.967z" fill="#ac4bff"/><path d="M37.978 25.821l-3.257-6.365c.233 3.648-.673 6.986-2.561 10.866l-6.239 12.734h4.01a3.364 3.364 0 003-1.863l5.1-10.4a5.509 5.509 0 00-.053-4.972z" fill="#a043f4" opacity=".42"/><path d="M17.5 107.777h7.037L10.1 79.473 17.316 64.7H8.8a3.3 3.3 0 00-2.975 1.863L.706 76.989a5.59 5.59 0 00.052 4.967L12.322 104.6a5.783 5.783 0 005.178 3.177z" transform="translate(-.114 -47.961)" fill="url(#d)"/><path d="M17.5 107.777h7.037L10.1 79.473 17.316 64.7H8.8a3.3 3.3 0 00-2.975 1.863L.706 76.989a5.59 5.59 0 00.052 4.967L12.322 104.6a5.783 5.783 0 005.178 3.177z" transform="translate(-.114 -47.961)" fill="url(#e)"/><path d="M12.348 104.5c-5.77-11.28-6.209-17-2.251-25.122L17.316 64.6H8.8a3.364 3.364 0 00-3 1.863L.706 76.915a5.591 5.591 0 00.052 4.967z" transform="translate(-.114 -47.886)" fill="url(#f)"/><path d="M12.234 56.614c-5.77-11.28-6.209-17-2.251-25.122l7.219-14.778H8.686a3.364 3.364 0 00-3 1.863L.592 29.029a5.591 5.591 0 00.052 4.967z" fill="#d924d7"/><path d="M.618 33.996l3.286 6.369c-.233-3.648.673-6.986 2.561-10.866l6.261-12.734H8.664a3.364 3.364 0 00-3 1.863l-5.1 10.4a5.508 5.508 0 00.054 4.968z" fill="#b915b1" opacity=".32"/><path d="M70.573 33.878H58.361l-2.329 5.64h-6.209l11.72-26.26h6l11.746 26.26h-6.39zm-1.915-4.605l-4.165-10.064-4.17 10.064zm13.35-16.015h11.927a16.481 16.481 0 017.555 1.656 12.024 12.024 0 015.1 4.579 13.907 13.907 0 010 13.816 12.08 12.08 0 01-5.1 4.605 16.654 16.654 0 01-7.555 1.6H82.008zm11.617 21.267a8.78 8.78 0 006.261-2.173 7.777 7.777 0 002.354-5.977 7.624 7.624 0 00-2.354-5.925 8.737 8.737 0 00-6.261-2.225h-5.563v16.3zm24.449-.439v-5.071h8.15a5.828 5.828 0 100-11.643h-9.65v21.759h1.5zm0-15.213h8.15a4.329 4.329 0 110 8.641h-8.15zm21.397 5.742v14.54h1.5V24.693c-.026-.026 0-.1-.026-.181v-.233a5.725 5.725 0 00-.233-1.6 7.275 7.275 0 00-1.475-2.924 9.949 9.949 0 00-1.19-1.138 5.953 5.953 0 00-1.4-.854 7.326 7.326 0 00-3.234-.75v1.5a6.871 6.871 0 012.587.6 8.738 8.738 0 011.138.673 6.342 6.342 0 01.931.931 5.705 5.705 0 011.19 2.329 7.088 7.088 0 01.155 1.319v.259zm16.895 5.046v2.38h-.026v.569l-.026.078v.233c-.078.31-.155.6-.233.906a5.743 5.743 0 01-3 3.545 4.976 4.976 0 01-.854.362c-.31.078-.595.155-.906.233-.336.026-.647.026-.931.026-.336 0-.647 0-.983-.026-.31-.078-.595-.155-.905-.233a6.514 6.514 0 01-.854-.362 6.353 6.353 0 01-.828-.492 6.023 6.023 0 01-2.173-3.053c-.078-.31-.155-.6-.233-.906v-.233l-.026-.078v-7.684h-1.5v7.115a5.878 5.878 0 00.078 1.164 6.765 6.765 0 00.259 1.164 7.659 7.659 0 002.742 3.751c.311.233.647.44.983.647.388.155.75.31 1.138.44.362.1.75.181 1.138.259a6.135 6.135 0 001.19.078 6.005 6.005 0 001.164-.078c.388-.078.75-.155 1.138-.259.414-.155.75-.31 1.138-.44a8.04 8.04 0 00.983-.647 7.659 7.659 0 002.742-3.751 5.836 5.836 0 00.259-1.164 8.843 8.843 0 00.1-1.164v-7.115h-1.5v4.735zm10.837 9.858a7.425 7.425 0 006-2.975v3.312a4.833 4.833 0 01-.492 2.018 5.86 5.86 0 01-2.846 3 6.245 6.245 0 01-2.018.6h-.517a1.247 1.247 0 01-.31 0h-1.677v1.5h1.345a11.337 11.337 0 001.319-.026 7.17 7.17 0 002.51-.724 7.568 7.568 0 003.6-3.751 7.007 7.007 0 00.6-2.561 5.833 5.833 0 000-.673v-7.3a7.5 7.5 0 10-7.5 7.581zm-4.217-11.746a6.038 6.038 0 014.243-1.759 6.165 6.165 0 014.269 1.759 6.019 6.019 0 11-10.271 4.243 5.93 5.93 0 011.762-4.243z" fill="#fff"/></svg>