<svg xmlns="http://www.w3.org/2000/svg" width="95.683" height="32.758"><defs><linearGradient id="a" x1="13.178" y1="73.084" x2="14.177" y2="73.084" gradientUnits="objectBoundingBox"><stop offset="0" stop-color="#8a0bff"/><stop offset="1" stop-color="#2a0056"/></linearGradient><linearGradient id="b" x1=".796" y1="-.345" x2="1" y2="1.331" gradientUnits="objectBoundingBox"><stop offset="0" stop-color="#8a0bff" stop-opacity="0"/><stop offset=".429" stop-color="#441476"/><stop offset="1" stop-color="#471081"/></linearGradient><linearGradient id="c" x1="19.218" y1="78.294" x2="19.218" y2="79.294" gradientUnits="objectBoundingBox"><stop offset="0" stop-color="#a553ff"/><stop offset=".999" stop-color="#ae38ff"/></linearGradient><linearGradient id="d" x1="13.178" y1="72.308" x2="14.177" y2="72.308" gradientUnits="objectBoundingBox"><stop offset="0" stop-color="#3d0056"/><stop offset="1" stop-color="#ff0ba2"/></linearGradient><linearGradient id="f" x1="19.219" y1="77.616" x2="19.219" y2="78.616" gradientUnits="objectBoundingBox"><stop offset="0" stop-color="#df38ff"/><stop offset="1" stop-color="#ff39ff"/></linearGradient><radialGradient id="e" cx=".286" cy=".431" r=".524" gradientTransform="matrix(1 0 0 1.437 0 -.188)" gradientUnits="objectBoundingBox"><stop offset="0" stop-color="#3d0056"/><stop offset="1" stop-color="#e33fc5"/></radialGradient></defs><path d="M58.654 0H54.8l7.906 15.5-3.953 8.09h4.661a1.842 1.842 0 001.644-1.02l2.791-5.7a3.061 3.061 0 00-.028-2.72l-6.333-12.4A3.154 3.154 0 0058.654 0z" transform="translate(-47.037)" fill="url(#a)"/><path d="M58.654 0H54.8l7.906 15.5-3.953 8.09h4.661a1.842 1.842 0 001.644-1.02l2.791-5.7a3.061 3.061 0 00-.028-2.72l-6.333-12.4A3.154 3.154 0 0058.654 0z" transform="translate(-47.037)" fill="url(#b)"/><path d="M85.62 12.4c3.16 6.178 3.4 9.309 1.233 13.758l-3.953 8.09h4.661a1.842 1.842 0 001.644-1.02L92 27.532a3.061 3.061 0 00-.028-2.72z" transform="translate(-71.156 -10.643)" fill="url(#c)"/><path d="M14.464 1.757c3.16 6.178 3.4 9.309 1.233 13.758l-3.953 8.09h4.661a1.842 1.842 0 001.644-1.02l2.795-5.696a3.061 3.061 0 00-.028-2.72z" fill="#ac4bff"/><path d="M20.795 14.14l-1.783-3.485a11.492 11.492 0 01-1.4 5.951l-3.417 6.971h2.2a1.842 1.842 0 001.644-1.02l2.791-5.7a3.017 3.017 0 00-.035-2.717z" fill="#a043f4" opacity=".42"/><path d="M9.65 88.291h3.85L5.6 72.79l3.95-8.09H4.889a1.806 1.806 0 00-1.629 1.02L.454 71.43a3.061 3.061 0 00.028 2.72l6.333 12.4a3.167 3.167 0 002.835 1.741z" transform="translate(-.13 -55.533)" fill="url(#d)"/><path d="M9.65 88.291h3.85L5.6 72.79l3.95-8.09H4.889a1.806 1.806 0 00-1.629 1.02L.454 71.43a3.061 3.061 0 00.028 2.72l6.333 12.4a3.167 3.167 0 002.835 1.741z" transform="translate(-.13 -55.533)" fill="url(#e)"/><path d="M6.83 86.448C3.67 80.27 3.429 77.139 5.6 72.69l3.95-8.09H4.889a1.842 1.842 0 00-1.644 1.02L.454 71.344a3.062 3.062 0 00.028 2.72z" transform="translate(-.13 -55.447)" fill="url(#f)"/><path d="M6.7 31.001c-3.16-6.178-3.401-9.309-1.23-13.758l3.95-8.09H4.759a1.842 1.842 0 00-1.644 1.02L.324 15.897a3.062 3.062 0 00.028 2.72z" fill="#d924d7"/><path d="M.339 18.617l1.8 3.485a11.492 11.492 0 011.4-5.951l3.43-6.97H4.745a1.842 1.842 0 00-1.644 1.02l-2.791 5.7a3.017 3.017 0 00.029 2.716z" fill="#b915b1" opacity=".32"/><path d="M38.648 18.552H31.96l-1.275 3.089h-3.4L33.703 7.26h3.287l6.433 14.381h-3.5zM37.6 16.03l-2.281-5.512-2.281 5.512zm7.311-8.77h6.532a9.025 9.025 0 014.137.907 6.585 6.585 0 012.791 2.508 7.616 7.616 0 010 7.566 6.615 6.615 0 01-2.791 2.522 9.12 9.12 0 01-4.137.878h-6.532zm6.362 11.647a4.808 4.808 0 003.429-1.19 4.259 4.259 0 001.289-3.273 4.175 4.175 0 00-1.289-3.245 4.784 4.784 0 00-3.429-1.218h-3.046v8.926zm13.389-.241v-2.777h4.463a3.192 3.192 0 100-6.376H63.84v11.916h.822zm0-8.331h4.463a2.371 2.371 0 110 4.732h-4.463zm11.717 3.145v7.963h.822v-7.92c-.014-.014 0-.057-.014-.1v-.128a3.137 3.137 0 00-.128-.878 3.984 3.984 0 00-.808-1.6 5.448 5.448 0 00-.652-.623 3.26 3.26 0 00-.765-.468 4.012 4.012 0 00-1.77-.412v.822a3.763 3.763 0 011.417.326 4.783 4.783 0 01.623.368 3.472 3.472 0 01.51.51 3.124 3.124 0 01.65 1.274 3.879 3.879 0 01.085.723v.142zm9.252 2.763v1.3h-.014v.312l-.014.043v.128c-.042.17-.085.326-.128.5a3.513 3.513 0 01-1.19 1.672 3.477 3.477 0 01-.453.269 2.725 2.725 0 01-.468.2c-.17.042-.326.085-.5.128-.184.014-.354.014-.51.014-.184 0-.354 0-.538-.014-.17-.043-.326-.085-.5-.128a3.565 3.565 0 01-.468-.2 3.478 3.478 0 01-.453-.269 3.3 3.3 0 01-1.19-1.672c-.042-.17-.085-.326-.128-.5v-.128l-.014-.043V13.65h-.814v3.9a3.219 3.219 0 00.042.638 3.7 3.7 0 00.142.638 4.194 4.194 0 001.5 2.054c.17.128.354.241.538.354.213.085.411.17.623.241s.411.1.623.142a3.36 3.36 0 00.652.043 3.29 3.29 0 00.638-.043c.213-.043.411-.085.623-.142.227-.085.411-.17.623-.241a4.411 4.411 0 00.538-.354 4.194 4.194 0 001.5-2.054 3.192 3.192 0 00.142-.638 4.857 4.857 0 00.057-.638v-3.9h-.822v2.593zm5.937 5.398a4.066 4.066 0 003.287-1.629v1.814a2.646 2.646 0 01-.269 1.105 3.209 3.209 0 01-1.559 1.644 3.42 3.42 0 01-1.105.326h-.283a.683.683 0 01-.17 0h-.921v.822h.737a6.211 6.211 0 00.723-.014 3.927 3.927 0 001.374-.4 4.145 4.145 0 001.969-2.054 3.838 3.838 0 00.326-1.4 3.211 3.211 0 000-.368v-4a4.109 4.109 0 10-4.109 4.151zm-2.31-6.433a3.307 3.307 0 012.324-.963 3.376 3.376 0 012.338.963 3.3 3.3 0 11-5.625 2.324 3.247 3.247 0 01.964-2.323z" fill="#271f30"/></svg>