<svg xmlns="http://www.w3.org/2000/svg" width="15.432" height="16.834"><path d="M7.014 16.834a2.634 2.634 0 01-2.63-2.63.526.526 0 011.052 0 1.578 1.578 0 003.156 0 .526.526 0 011.052 0 2.634 2.634 0 01-2.63 2.63zm0 0" fill="#3d057a"/><path d="M12.8 14.73H1.227a1.228 1.228 0 01-.8-2.16.485.485 0 01.056-.042A4.714 4.714 0 002.1 8.971V7.014a4.916 4.916 0 014.914-4.91 2.114 2.114 0 01.346.021.526.526 0 11-.173 1.037 1.106 1.106 0 00-.173-.006 3.863 3.863 0 00-3.858 3.858v1.957a5.769 5.769 0 01-2.036 4.4l-.031.024a.174.174 0 00-.037.109.177.177 0 00.175.175H12.8a.177.177 0 00.175-.175.168.168 0 00-.038-.109l-.03-.024a5.768 5.768 0 01-2.036-4.4v-.767a.526.526 0 111.052 0v.764a4.716 4.716 0 001.621 3.559.513.513 0 01.054.041 1.227 1.227 0 01-.8 2.16zm0 0" fill="#3d057a"/><path d="M11.924 7.014a3.507 3.507 0 113.507-3.507 3.511 3.511 0 01-3.507 3.507zm0-5.962a2.455 2.455 0 102.455 2.455 2.458 2.458 0 00-2.455-2.455zm0 0" fill="#3d057a"/></svg>