<svg xmlns="http://www.w3.org/2000/svg" width="16.74" height="14.755"><path d="M14.158 2.744h-2.425V1.235A1.246 1.246 0 0010.479 0H6.261a1.246 1.246 0 00-1.254 1.235v1.508H2.583A2.58 2.58 0 000 5.314v7.341a2.107 2.107 0 002.11 2.1h12.521a2.107 2.107 0 002.11-2.1V5.314a2.58 2.58 0 00-2.583-2.57zM5.992 1.235a.257.257 0 01.27-.256h4.218a.257.257 0 01.27.256v1.508H5.992zm9.765 11.42a1.124 1.124 0 01-1.126 1.121H2.11a1.124 1.124 0 01-1.126-1.121V8.086a2.132 2.132 0 00.5.23l.028.008 5.012 1.219v.4a1.151 1.151 0 001.155 1.143h1.382a1.151 1.151 0 001.152-1.147v-.4l5.012-1.219.028-.008a2.132 2.132 0 00.5-.23v4.574zM7.511 9.941V8.559a.168.168 0 01.168-.167h1.382a.168.168 0 01.168.167v1.382a.168.168 0 01-.168.167H7.679a.168.168 0 01-.168-.167zm8.246-3.64a1.118 1.118 0 01-.781 1.071l-4.763 1.159a1.151 1.151 0 00-1.151-1.118H7.679a1.151 1.151 0 00-1.151 1.118L1.765 7.372a1.119 1.119 0 01-.781-1.071v-.987a1.6 1.6 0 011.6-1.591h11.574a1.6 1.6 0 011.6 1.591v.987z" fill="#3d057a"/></svg>