<svg xmlns="http://www.w3.org/2000/svg" width="16.967" height="16.967"><path d="M8.484 5.716a2.768 2.768 0 11-2.768 2.768 2.771 2.771 0 012.768-2.768zm0 4.287a1.519 1.519 0 10-1.518-1.519 1.521 1.521 0 001.518 1.519z" fill="#3d057a"/><path d="M8.541 16.967a2.055 2.055 0 01-2.053-2.053v-.056a.552.552 0 00-.363-.5l-.037-.015a.555.555 0 00-.61.109l-.04.04a2.054 2.054 0 11-2.9-2.9l.04-.04a.552.552 0 00.109-.61v-.006a.555.555 0 00-.508-.336H2.05a2.053 2.053 0 010-4.106h.056a.552.552 0 00.5-.363l.015-.037a.552.552 0 00-.109-.61l-.04-.04a2.054 2.054 0 112.9-2.9l.04.04a.555.555 0 00.61.109.624.624 0 01.14-.043.554.554 0 00.259-.467V2.05a2.053 2.053 0 014.106 0v.064a.554.554 0 00.336.505h.006a.555.555 0 00.61-.109l.04-.04a2.054 2.054 0 112.9 2.9l-.04.04a.552.552 0 00-.109.61.624.624 0 01.043.14.554.554 0 00.467.259h.119a2.053 2.053 0 010 4.106h-.049a.554.554 0 00-.505.336v.006a.552.552 0 00.109.61l.04.04a2.054 2.054 0 11-2.9 2.9l-.04-.039a.555.555 0 00-.61-.109h-.006a.555.555 0 00-.336.508v.119a2.055 2.055 0 01-2.061 2.071zm-1.967-3.775a1.793 1.793 0 011.162 1.643v.079a.805.805 0 001.61 0v-.121a1.811 1.811 0 013.075-1.289l.043.043a.806.806 0 101.14-1.139l-.043-.043a1.813 1.813 0 011.289-3.077h.067a.805.805 0 000-1.61h-.121a1.8 1.8 0 01-1.656-1.092.624.624 0 01-.046-.174 1.794 1.794 0 01.41-1.866l.043-.043a.806.806 0 10-1.139-1.14l-.043.043A1.813 1.813 0 019.288 2.12v-.07a.805.805 0 10-1.61 0v.121a1.8 1.8 0 01-1.092 1.656.624.624 0 01-.174.046 1.8 1.8 0 01-1.862-.409l-.043-.043a.806.806 0 10-1.14 1.139l.043.043a1.794 1.794 0 01.368 1.971 1.793 1.793 0 01-1.646 1.162H2.05a.805.805 0 000 1.61h.121a1.813 1.813 0 011.289 3.075l-.043.043a.806.806 0 101.139 1.14l.043-.043a1.8 1.8 0 011.971-.368z" fill="#3d057a"/></svg>