<svg xmlns="http://www.w3.org/2000/svg" width="16.861" height="16.861"><g fill="#3d057a"><path d="M4.527 0h7.806a4.532 4.532 0 014.527 4.527v7.806a4.532 4.532 0 01-4.527 4.527H4.527A4.532 4.532 0 010 12.334V4.527A4.532 4.532 0 014.527 0zm7.806 15.613a3.283 3.283 0 003.279-3.279V4.527a3.283 3.283 0 00-3.278-3.277H4.527A3.283 3.283 0 001.25 4.527v7.806a3.283 3.283 0 003.279 3.279z"/><path d="M8.463 4.65a3.766 3.766 0 01.551.041 3.747 3.747 0 011.135 7.053 3.763 3.763 0 01-1.684.4 3.747 3.747 0 010-7.494zm0 6.245a2.5 2.5 0 10-1.768-.732 2.483 2.483 0 001.77.732z"/></g></svg>