<svg xmlns="http://www.w3.org/2000/svg" width="12.482" height="14.704"><path d="M11.839 12.406a.612.612 0 00-.643.574.513.513 0 01-.181.4.745.745 0 01-.487.174.628.628 0 01-.437-.164l-3.393-3.107a.7.7 0 00-.922 0l-3.389 3.109a.636.636 0 01-.44.164.734.734 0 01-.487-.17.5.5 0 01-.177-.394V2.3A1.225 1.225 0 012.57 1.151h7.335A1.225 1.225 0 0111.198 2.3v7.84a.648.648 0 001.287 0V2.3A2.45 2.45 0 009.909 0H2.574A2.45 2.45 0 00-.002 2.3v10.691a1.6 1.6 0 00.562 1.213 2.105 2.105 0 001.377.5h.034a1.991 1.991 0 001.34-.511l2.928-2.686 2.928 2.686a1.983 1.983 0 001.343.511 2.118 2.118 0 001.407-.505 1.61 1.61 0 00.563-1.218.612.612 0 00-.641-.575z" fill="#3d057a"/></svg>