<svg xmlns="http://www.w3.org/2000/svg" width="15.967" height="14.738"><path d="M11.576 0a4.723 4.723 0 00-3.592 1.685A4.723 4.723 0 004.391 0 4.341 4.341 0 000 4.418c0 3.051 2.714 5.5 6.824 9.277l1.159 1.044 1.159-1.044c4.111-3.777 6.824-6.225 6.824-9.277A4.341 4.341 0 0011.576 0zm-3.1 12.639l-.161.15-.33.3-.33-.3-.161-.15a48.784 48.784 0 01-4.709-4.682 5.631 5.631 0 01-1.553-3.539 3.192 3.192 0 01.91-2.276 3.124 3.124 0 012.249-.913 3.52 3.52 0 012.652 1.247l.94 1.117.94-1.117a3.507 3.507 0 012.652-1.247 3.139 3.139 0 012.253.913 3.2 3.2 0 01.91 2.276 5.661 5.661 0 01-1.551 3.539 48.883 48.883 0 01-4.712 4.682z" fill="#3d077a"/></svg>