<svg xmlns="http://www.w3.org/2000/svg" width="15.632" height="15.632"><path d="M8.198 0h.452a7.392 7.392 0 016.981 6.981v.434a7.42 7.42 0 01-7.416 7.416h-.018a7.36 7.36 0 01-3.062-.671L.821 15.599a.624.624 0 01-.789-.789l1.438-4.315a7.419 7.419 0 016.728-10.5zm.4 1.248h-.4A6.1 6.1 0 005.46 1.9a6.168 6.168 0 00-3.41 5.516 6.1 6.1 0 00.652 2.755.624.624 0 01.035.479l-1.126 3.371 3.371-1.123a.624.624 0 01.479.035 6.1 6.1 0 002.738.652h.016a6.168 6.168 0 005.516-3.411 6.1 6.1 0 00.653-2.756v-.384A6.145 6.145 0 008.597 1.25z" fill="#3d057a"/></svg>