<svg xmlns="http://www.w3.org/2000/svg" width="70" height="70"><g transform="translate(-527 -1360)"><circle cx="35" cy="35" r="35" transform="translate(527 1360)" fill="#fff4f5"/><path d="M574.474 1398.459a19.739 19.739 0 01-5.143 3.056l3.388 5.868 3.361 1.435a1 1 0 001.381-.8l.437-3.629-3.426-5.933zm2.647-5.892a1 1 0 00-.377-1.4L575 1390.2a1 1 0 00-1.325.356 13.97 13.97 0 01-11.725 6.382 13.854 13.854 0 01-4.325-.718l4.2-7.27c.044 0 .083.013.127.013s.084-.012.127-.013l3.183 5.514a11.868 11.868 0 005.147-3.048l-3.229-5.59a5.9 5.9 0 00.751-2.845 5.981 5.981 0 00-11.963 0 5.91 5.91 0 00.751 2.845l-4.255 7.374a13.93 13.93 0 01-2.1-2.43 1 1 0 00-1.332-.332l-1.729 1a1 1 0 00-.351 1.4 17.877 17.877 0 003.489 3.862l-4.441 7.693.437 3.629a1 1 0 001.381.8l3.362-1.438 4.411-7.64a17.884 17.884 0 006.359 1.181 17.97 17.97 0 0015.171-8.358zm-15.171-11.579a1.994 1.994 0 11-1.994 1.994 1.994 1.994 0 011.994-1.994z" fill="#ff7588"/></g></svg>