<svg xmlns="http://www.w3.org/2000/svg" width="56.919" height="56.919"><path d="M28.459 0A28.459 28.459 0 110 28.459 28.459 28.459 0 0128.459 0z" fill="#fff4f5"/><path d="M28.768 39.497a3.081 3.081 0 003.08-3.081h-6.16a3.081 3.081 0 003.08 3.081zm10.37-7.208c-.93-1-2.671-2.5-2.671-7.429a7.6 7.6 0 00-6.16-7.471v-1a1.54 1.54 0 10-3.08 0v1a7.6 7.6 0 00-6.16 7.471c0 4.925-1.741 6.429-2.671 7.429a1.5 1.5 0 00-.413 1.046 1.542 1.542 0 001.546 1.541h18.478a1.542 1.542 0 001.546-1.541 1.5 1.5 0 00-.415-1.046z" fill="#ff7588"/></svg>