<svg xmlns="http://www.w3.org/2000/svg" width="70" height="70"><path d="M35 0A35 35 0 110 35 35 35 0 0135 0z" fill="#f5f4ff"/><path d="M43.074 23.363l5.814 5.814a.63.63 0 010 .889L34.811 44.142l-5.981.664a1.254 1.254 0 01-1.386-1.386l.664-5.981 14.077-14.076a.63.63 0 01.889 0zm10.441-1.476l-3.145-3.145a2.521 2.521 0 00-3.558 0l-2.286 2.281a.63.63 0 000 .889l5.814 5.814a.63.63 0 00.889 0l2.282-2.282a2.521 2.521 0 000-3.558zm-11.64 18.427v6.561H21.251V26.25h14.811a.792.792 0 00.548-.226l2.578-2.578a.773.773 0 00-.548-1.321H20.22a3.094 3.094 0 00-3.094 3.094v22.687A3.094 3.094 0 0020.22 51h22.687a3.094 3.094 0 003.094-3.094v-10.17a.775.775 0 00-1.321-.548l-2.578 2.578a.792.792 0 00-.227.548z" fill="#7a65ff"/></svg>