<svg xmlns="http://www.w3.org/2000/svg" width="14.951" height="14.951"><path d="M7.476 14.951A7.476 7.476 0 012.19 2.19a7.476 7.476 0 0110.572 10.572 7.427 7.427 0 01-5.286 2.19zm0-14.017a6.541 6.541 0 106.541 6.541A6.549 6.549 0 007.476.934z"/><path d="M7.473 7.008A1.168 1.168 0 118.641 5.84a.467.467 0 10.934 0A2.106 2.106 0 007.94 3.79v-.52a.467.467 0 10-.934 0v.52a2.1 2.1 0 00.467 4.152A1.168 1.168 0 116.305 9.11a.467.467 0 00-.934 0 2.106 2.106 0 001.635 2.05v.52a.467.467 0 00.934 0v-.52a2.1 2.1 0 00-.467-4.152z"/></svg>