<svg xmlns="http://www.w3.org/2000/svg" width="15.278" height="15.278"><path d="M7.639 0A7.639 7.639 0 110 7.639 7.639 7.639 0 017.639 0z" fill="#2c1b6d"/><path d="M10.08 7.345a.375.375 0 01.267.107.346.346 0 01.113.261.375.375 0 01-.107.267.359.359 0 01-.273.113H7.933v2.135a.37.37 0 01-.107.273.355.355 0 01-.261.107.346.346 0 01-.261-.11.375.375 0 01-.107-.267V8.092H5.05a.365.365 0 01-.267-.113.365.365 0 01-.113-.267.346.346 0 01.113-.261.375.375 0 01.267-.106h2.147V5.21a.39.39 0 01.107-.279.346.346 0 01.261-.113.346.346 0 01.261.113.39.39 0 01.107.279v2.135z" fill="#fff"/></svg>