<svg xmlns="http://www.w3.org/2000/svg" width="114.039" height="114.039"><defs><linearGradient id="a" x1=".18" y1=".154" x2=".794" y2=".856" gradientUnits="objectBoundingBox"><stop offset="0" stop-color="#b6a0ff"/><stop offset=".467" stop-color="#c5a0e4"/><stop offset="1" stop-color="#f7a1a1"/></linearGradient></defs><path d="M57.02 0a57.02 57.02 0 0157.02 57.02A57.02 57.02 0 010 57.02 57.02 57.02 0 0157.02 0z" fill="url(#a)"/><path d="M51.942 67.52h3.944l-9.166-20.3h-3.71l-9.135 20.3h3.886l2-4.7h10.15zm-10.904-7.656l3.8-8.874 3.828 8.874zm17.429 7.656h8.874c6.579 0 11.079-4.06 11.079-10.15s-4.5-10.15-11.079-10.15h-8.874zm3.77-3.19V50.41h4.93c4.524 0 7.453 2.755 7.453 6.96s-2.929 6.96-7.453 6.96z" fill="#dac7ff"/></svg>