<svg xmlns="http://www.w3.org/2000/svg" width="22.125" height="22.126"><path d="M11.067 5.381a5.677 5.677 0 105.677 5.677 5.676 5.676 0 00-5.677-5.677zm0 9.362a3.685 3.685 0 113.685-3.685 3.684 3.684 0 01-3.685 3.685z" fill="#5800ff"/><path d="M15.624.069c-2.036-.095-7.077-.09-9.115 0a6.611 6.611 0 00-4.642 1.789C-.261 3.986.011 6.853.011 11.058c0 4.3-.24 7.1 1.856 9.2 2.136 2.135 5.045 1.856 9.2 1.856 4.263 0 5.734 0 7.241-.581 2.049-.8 3.6-2.627 3.747-5.918.1-2.036.09-7.077 0-9.115-.182-3.884-2.267-6.239-6.431-6.431zm3.222 18.781c-1.395 1.395-3.33 1.27-7.807 1.27-4.609 0-6.458.068-7.807-1.284-1.553-1.546-1.272-4.029-1.272-7.793 0-5.093-.523-8.762 4.589-9.023 1.174-.041 1.52-.055 4.477-.055l.041.028c4.913 0 8.767-.514 9 4.6.053 1.166.065 1.517.065 4.468 0 4.556.086 6.415-1.285 7.793z" fill="#5800ff"/><circle cx="1.327" cy="1.327" r="1.327" transform="translate(15.642 3.831)" fill="#5800ff"/></svg>