<svg xmlns="http://www.w3.org/2000/svg" width="17.938" height="20.648"><path d="M9.421.017C10.548 0 11.666.009 12.785 0a5.359 5.359 0 001.506 3.588 6.067 6.067 0 003.648 1.54v3.467a9.209 9.209 0 01-3.613-.835 10.629 10.629 0 01-1.394-.8c-.009 2.512.009 5.024-.017 7.528a6.571 6.571 0 01-1.161 3.39 6.41 6.41 0 01-5.085 2.762 6.273 6.273 0 01-3.51-.886 6.488 6.488 0 01-3.14-4.912c-.017-.43-.026-.86-.009-1.282a6.477 6.477 0 017.51-5.748c.017 1.273-.034 2.547-.034 3.82a2.952 2.952 0 00-3.768 1.824 3.413 3.413 0 00-.12 1.385 2.928 2.928 0 003.01 2.469 2.89 2.89 0 002.383-1.385 1.985 1.985 0 00.353-.912c.086-1.54.052-3.071.06-4.611.009-3.467-.009-6.926.017-10.384z" fill="#5800ff"/></svg>