<svg xmlns="http://www.w3.org/2000/svg" width="11.248" height="20.804"><defs><clipPath id="a"><path d="M32.9 0h-2.7a4.738 4.738 0 00-4.99 5.12v2.361H22.5a.424.424 0 00-.424.424v3.42a.424.424 0 00.424.424h2.713v8.63a.424.424 0 00.424.424h3.539a.424.424 0 00.424-.424V11.75h3.172a.424.424 0 00.424-.424V7.905a.425.425 0 00-.424-.424H29.6v-2c0-.962.229-1.45 1.482-1.45H32.9a.424.424 0 00.424-.424V.429A.424.424 0 0032.9 0z" transform="translate(-22.077)" fill="#5800ff"/></clipPath></defs><g clip-path="url(#a)"><path d="M10.823 0h-2.7a4.738 4.738 0 00-4.99 5.12v2.361H.423a.424.424 0 00-.424.424v3.42a.424.424 0 00.424.424h2.713v8.63a.424.424 0 00.424.424h3.539a.424.424 0 00.424-.424V11.75h3.172a.424.424 0 00.424-.424V7.905a.425.425 0 00-.424-.424H7.523v-2c0-.962.229-1.45 1.482-1.45h1.818a.424.424 0 00.424-.424V.429A.424.424 0 0010.823 0z" fill="#5800ff"/></g></svg>