<svg xmlns="http://www.w3.org/2000/svg" width="29.786" height="29.786"><defs><linearGradient id="a" x1=".146" y1=".146" x2=".854" y2=".854" gradientUnits="objectBoundingBox"><stop offset="0" stop-color="#22004a"/><stop offset=".957" stop-color="#010003"/><stop offset="1"/></linearGradient></defs><circle cx="14.893" cy="14.893" fill="url(#a)" r="14.893"/><g fill-rule="evenodd"><path d="M18.924 12.161a7.416 7.416 0 004.324 1.382v-3.1a4.39 4.39 0 01-.909-.1v2.442a7.413 7.413 0 01-4.324-1.383v6.329a5.737 5.737 0 01-8.929 4.763 5.737 5.737 0 009.837-4.008v-6.325zm1.119-3.129a4.32 4.32 0 01-1.119-2.531v-.4h-.861a4.342 4.342 0 001.98 2.929zM11.09 20.068a2.625 2.625 0 012.885-4.088v-3.17a5.752 5.752 0 00-.908-.053v2.468a2.623 2.623 0 00-1.977 4.842z" fill="#ee1d52"/><path d="M18.013 11.406a7.413 7.413 0 004.324 1.383v-2.442a4.344 4.344 0 01-2.3-1.315 4.342 4.342 0 01-1.98-2.929h-2.262V18.49a2.624 2.624 0 01-4.712 1.579 2.624 2.624 0 011.977-4.842v-2.469a5.732 5.732 0 00-3.981 9.74 5.737 5.737 0 008.929-4.763z" fill="#fff"/><path d="M22.336 10.347v-.66a4.333 4.333 0 01-2.3-.655 4.344 4.344 0 002.3 1.315zM18.06 6.103a4.252 4.252 0 01-.048-.357v-.4h-3.121v12.389a2.626 2.626 0 01-3.8 2.334 2.624 2.624 0 004.712-1.579V6.103zm-5 6.655v-.7a5.809 5.809 0 00-.787-.053 5.732 5.732 0 00-3.192 10.5 5.732 5.732 0 013.98-9.74z" fill="#69c9d0"/></g></svg>