<svg xmlns="http://www.w3.org/2000/svg" width="25" height="25"><path d="M1 0h3a1 1 0 011 1v3a1 1 0 01-1 1H1a1 1 0 01-1-1V1a1 1 0 011-1zm10 0h3a1 1 0 011 1v3a1 1 0 01-1 1h-3a1 1 0 01-1-1V1a1 1 0 011-1zm10 0h3a1 1 0 011 1v3a1 1 0 01-1 1h-3a1 1 0 01-1-1V1a1 1 0 011-1zM1 10h3a1 1 0 011 1v3a1 1 0 01-1 1H1a1 1 0 01-1-1v-3a1 1 0 011-1zm10 0h3a1 1 0 011 1v3a1 1 0 01-1 1h-3a1 1 0 01-1-1v-3a1 1 0 011-1zm10 0h3a1 1 0 011 1v3a1 1 0 01-1 1h-3a1 1 0 01-1-1v-3a1 1 0 011-1zM1 20h3a1 1 0 011 1v3a1 1 0 01-1 1H1a1 1 0 01-1-1v-3a1 1 0 011-1zm10 0h3a1 1 0 011 1v3a1 1 0 01-1 1h-3a1 1 0 01-1-1v-3a1 1 0 011-1zm10 0h3a1 1 0 011 1v3a1 1 0 01-1 1h-3a1 1 0 01-1-1v-3a1 1 0 011-1z"/></svg>