<svg xmlns="http://www.w3.org/2000/svg" width="29.786" height="29.786"><defs><linearGradient id="a" x1=".854" y1=".146" x2=".146" y2=".854" gradientUnits="objectBoundingBox"><stop offset="0" stop-color="#3cf"/><stop offset="1" stop-color="#337fff"/></linearGradient></defs><circle cx="14.893" cy="14.893" fill="url(#a)" r="14.893"/><path d="M23.122 9.79a6.733 6.733 0 01-1.643.469c.264-.045.652-.524.808-.716a3.016 3.016 0 00.545-1c.014-.028.024-.063 0-.085a.094.094 0 00-.088.007 8.341 8.341 0 01-1.947.745.13.13 0 01-.134-.036 1.612 1.612 0 00-.17-.173 3.423 3.423 0 00-.943-.579 3.287 3.287 0 00-1.447-.233 3.465 3.465 0 00-1.373.388 3.547 3.547 0 00-1.107.9 3.4 3.4 0 00-.661 1.324 3.592 3.592 0 00-.036 1.4c.011.078 0 .09-.067.078a10.4 10.4 0 01-6.692-3.406c-.077-.089-.12-.089-.184.007a3.393 3.393 0 00.579 4.009c.131.124.266.249.411.362a3.41 3.41 0 01-1.292-.362c-.078-.049-.117-.021-.124.067a1.986 1.986 0 00.021.384 3.431 3.431 0 002.115 2.736 2.043 2.043 0 00.429.13 3.8 3.8 0 01-1.266.04c-.093-.018-.127.029-.093.117a3.565 3.565 0 002.662 2.229c.12.02.241.02.363.049-.008.011-.015.011-.021.021a4.229 4.229 0 01-1.818.964 6.521 6.521 0 01-2.76.353c-.148-.022-.179-.02-.219 0s-.005.06.042.1c.188.124.38.234.575.34a9.075 9.075 0 001.845.738 9.829 9.829 0 009.541-2.231 10.012 10.012 0 002.64-7.3c0-.106.124-.163.2-.219a6.478 6.478 0 001.3-1.35.414.414 0 00.086-.259v-.014c-.011-.037-.012-.024-.077.006z" fill="#fff"/></svg>