<svg xmlns="http://www.w3.org/2000/svg" width="18.635" height="22.013"><path d="M5.403 12.94c-.17.932-.845 5.276-1.044 6.5-.015.087-.049.121-.146.121H.594a.59.59 0 01-.587-.675L2.85.84a.986.986 0 01.971-.82c7.393 0 8.014-.18 9.9.553 2.917 1.131 3.184 3.859 2.136 6.81-1.044 3.039-3.519 4.344-6.8 4.383-2.107.034-3.374-.34-3.655 1.175zM17.33 5.956c-.087-.063-.121-.087-.146.063a11.36 11.36 0 01-.427 1.631c-1.937 5.524-7.305 5.043-9.927 5.043a.488.488 0 00-.529.456c-1.1 6.815-1.315 8.237-1.315 8.237a.517.517 0 00.515.626h3.082a.871.871 0 00.845-.723c.034-.262-.053.3.7-4.432.223-1.068.694-.956 1.422-.956 3.446 0 6.136-1.4 6.936-5.451.316-1.689.223-3.466-1.155-4.495z" fill="#581dff"/></svg>