<svg xmlns="http://www.w3.org/2000/svg" width="24.78" height="24.78"><defs><clipPath id="a"><path d="M-3063.035 1536.654h-2.169l4.453 8.724-2.227 4.557h2.624a1.024 1.024 0 00.923-.575l1.567-3.209a1.715 1.715 0 00-.014-1.534l-3.567-6.977a1.758 1.758 0 00-1.59-.986z" transform="translate(3065.204 -1536.654)" fill="none"/></clipPath><clipPath id="b"><path d="M-3063.944 1554.768h2.168l-4.449-8.723 2.225-4.558h-2.621a1.019 1.019 0 00-.92.576l-1.573 3.215a1.719 1.719 0 00.014 1.533l3.563 6.978a1.783 1.783 0 001.593.979z" transform="translate(3069.289 -1541.487)" fill="none"/></clipPath></defs><circle cx="12.39" cy="12.39" r="12.39" fill="#8a0bff"/><path d="M12.391 23.551A11.174 11.174 0 011.23 12.39 11.174 11.174 0 0112.391 1.229a11.173 11.173 0 0111.16 11.161 11.173 11.173 0 01-11.16 11.161zm0-21.679A10.531 10.531 0 001.872 12.391 10.531 10.531 0 0012.391 22.91a10.531 10.531 0 0010.52-10.519 10.531 10.531 0 00-10.52-10.519z" fill="#fff"/><path d="M12.979 3.173H10.81l4.453 8.724-2.227 4.557h2.624a1.024 1.024 0 00.923-.575l1.567-3.209a1.715 1.715 0 00-.014-1.534l-3.567-6.977a1.758 1.758 0 00-1.59-.986z" fill="#fff"/><g clip-path="url(#a)" transform="translate(10.81 3.173)"><path fill="#fff" d="M-.001-.001h7.573v1.634H-.001zm0 1.634h7.573v.204H-.001z"/><path fill="#fefefe" d="M-.001 1.838h7.573v.204H-.001z"/><path fill="#fdfdfd" d="M-.001 2.042h7.573v.204H-.001z"/><path fill="#fcfcfc" d="M-.001 2.246h7.573v.204H-.001z"/><path fill="#fbfbfb" d="M-.001 2.451h7.573v.204H-.001z"/><path fill="#fafafa" d="M-.001 2.655h7.573v.204H-.001z"/><path fill="#f9f9f9" d="M-.001 2.859h7.573v.204H-.001z"/><path fill="#f8f8f8" d="M-.001 3.064h7.573v.204H-.001z"/><path fill="#f7f7f7" d="M-.001 3.268h7.573v.204H-.001z"/><path fill="#f6f6f6" d="M-.001 3.472h7.573v.204H-.001z"/><path fill="#f5f5f5" d="M-.001 3.677h7.573v.204H-.001z"/><path fill="#f4f4f4" d="M-.001 3.881h7.573v.204H-.001z"/><path fill="#f3f3f3" d="M-.001 4.085h7.573v.204H-.001z"/><path fill="#f2f2f2" d="M-.001 4.29h7.573v.204H-.001z"/><path fill="#f1f1f1" d="M-.001 4.494h7.573v.204H-.001z"/><path fill="#f0f0f0" d="M-.001 4.698h7.573v.204H-.001z"/><path fill="#efefef" d="M-.001 4.903h7.573v.204H-.001z"/><path fill="#eee" d="M-.001 5.107h7.573v.204H-.001z"/><path fill="#ededed" d="M-.001 5.311h7.573v.204H-.001z"/><path fill="#ececec" d="M-.001 5.516h7.573v.204H-.001z"/><path fill="#ebebeb" d="M-.001 5.72h7.573v.204H-.001z"/><path fill="#eaeaea" d="M-.001 5.924h7.573v.204H-.001z"/><path fill="#e9e9e9" d="M-.001 6.129h7.573v.204H-.001z"/><path fill="#e8e8e8" d="M-.001 6.333h7.573v.204H-.001z"/><path fill="#e7e7e7" d="M-.001 6.537h7.573v.204H-.001z"/><path fill="#e6e6e6" d="M-.001 6.742h7.573v.204H-.001z"/><path fill="#e5e5e5" d="M-.001 6.946h7.573v.204H-.001z"/><path fill="#e4e4e4" d="M-.001 7.15h7.573v.204H-.001z"/><path fill="#e3e3e3" d="M-.001 7.355h7.573v.204H-.001z"/><path fill="#e1e1e1" d="M-.001 7.559h7.573v.204H-.001z"/><path fill="#e0e0e0" d="M-.001 7.763h7.573v.204H-.001z"/><path fill="#dfdfdf" d="M-.001 7.968h7.573v.204H-.001z"/><path fill="#dedede" d="M-.001 8.172h7.573v.204H-.001z"/><path fill="#ddd" d="M-.001 8.376h7.573v.204H-.001z"/><path fill="#dcdcdc" d="M-.001 8.581h7.573v.204H-.001z"/><path fill="#dbdbdb" d="M-.001 8.785h7.573v.204H-.001z"/><path fill="#dadada" d="M-.001 8.989h7.573v.204H-.001z"/><path fill="#d9d9d9" d="M-.001 9.194h7.573v.204H-.001z"/><path fill="#d8d8d8" d="M-.001 9.398h7.573v.204H-.001z"/><path fill="#d7d7d7" d="M-.001 9.602h7.573v.204H-.001z"/><path fill="#d6d6d6" d="M-.001 9.807h7.573v.204H-.001z"/><path fill="#d5d5d5" d="M-.001 10.011h7.573v.204H-.001z"/><path fill="#d4d4d4" d="M-.001 10.215h7.573v.204H-.001z"/><path fill="#d3d3d3" d="M-.001 10.42h7.573v.204H-.001z"/><path fill="#d2d2d2" d="M-.001 10.624h7.573v.204H-.001z"/><path fill="#d1d1d1" d="M-.001 10.828h7.573v.204H-.001z"/><path fill="#d0d0d0" d="M-.001 11.033h7.573v.204H-.001z"/><path fill="#cfcfcf" d="M-.001 11.237h7.573v.204H-.001z"/><path fill="#cecece" d="M-.001 11.441h7.573v.204H-.001z"/><path fill="#cdcdcd" d="M-.001 11.646h7.573v.204H-.001z"/><path fill="#ccc" d="M-.001 11.85h7.573v.204H-.001z"/><path fill="#cbcbcb" d="M-.001 12.054h7.573v.204H-.001z"/><path fill="#cacaca" d="M-.001 12.259h7.573v.204H-.001z"/><path fill="#c9c9c9" d="M-.001 12.463h7.573v.204H-.001z"/><path fill="#c8c8c8" d="M-.001 12.667h7.573v.204H-.001z"/><path fill="#c7c7c7" d="M-.001 12.872h7.573v.204H-.001z"/><path d="M7.573 13.279H-.001v-.2h7.573zm-3.816.002h3.816z" fill="#c6c6c6"/></g><path d="M14.58 4.158c1.78 3.477 1.916 5.243.7 7.741l-2.228 4.555h2.625a1.023 1.023 0 00.922-.575l1.568-3.207a1.714 1.714 0 00-.015-1.532z" fill="#fff"/><path d="M14.58 4.158c1.78 3.477 1.916 5.243.7 7.741l-2.228 4.555h2.625a1.023 1.023 0 00.922-.575l1.568-3.207a1.714 1.714 0 00-.015-1.532z" fill="#fff"/><path d="M18.145 11.13l-1.006-1.964a6.459 6.459 0 01-.787 3.347l-1.92 3.927h1.24a1.019 1.019 0 00.92-.574l1.566-3.2a1.686 1.686 0 00-.013-1.536z" fill="#fff" opacity=".42"/><g clip-path="url(#b)" transform="translate(6.454 8.327)"><path d="M7.346 0v.029L-.061.194V.001z" fill="#c7c7c7"/><path fill="#c8c8c8" d="M-.063.194l7.41-.165.004.226L-.058.42z"/><path fill="#c9c9c9" d="M-.063.42L7.351.255l.005.226-7.414.165z"/><path fill="#cacaca" d="M-.063.646l7.42-.165.004.226-7.419.165z"/><path fill="#cbcbcb" d="M-.063.872L7.361.707l.005.226-7.424.165z"/><path fill="#ccc" d="M-.063 1.098l7.43-.165.004.226-7.429.165z"/><path fill="#cdcdcd" d="M-.063 1.324l7.434-.165.005.226-7.434.165z"/><path fill="#cecece" d="M-.063 1.55l7.44-.165.004.226-7.439.165z"/><path fill="#cfcfcf" d="M-.063 1.776l7.444-.165.005.226-7.444.165z"/><path fill="#d0d0d0" d="M-.063 2.002l7.45-.166.004.226-7.449.166z"/><path fill="#d1d1d1" d="M-.063 2.228l7.454-.166.005.226-7.454.166z"/><path fill="#d2d2d2" d="M-.063 2.455l7.46-.166.004.226-7.459.166z"/><path fill="#d3d3d3" d="M-.063 2.681l7.465-.166.005.226-7.465.166z"/><path fill="#d4d4d4" d="M-.063 2.907l7.47-.166.005.226-7.47.166z"/><path fill="#d5d5d5" d="M-.063 3.133l7.475-.166.005.226-7.475.166z"/><path fill="#d6d6d6" d="M-.063 3.359l7.48-.166.005.226-7.48.166z"/><path fill="#d7d7d7" d="M-.063 3.585l7.485-.166.005.226-7.485.166z"/><path fill="#d8d8d8" d="M-.063 3.811l7.49-.166.005.226-7.49.166z"/><path fill="#d9d9d9" d="M-.063 4.037l7.495-.167.005.226-7.495.167z"/><path fill="#dadada" d="M-.063 4.263l7.5-.167.005.226-7.5.167z"/><path fill="#dbdbdb" d="M-.063 4.489l7.505-.167.005.226-7.505.167z"/><path fill="#dcdcdc" d="M-.063 4.715l7.51-.167.005.226-7.51.167z"/><path fill="#ddd" d="M-.063 4.941l7.515-.167.005.226-7.515.167z"/><path fill="#dedede" d="M-.063 5.167L7.457 5l.005.226-7.52.167z"/><path fill="#dfdfdf" d="M-.063 5.393l7.525-.167.005.226-7.525.167z"/><path fill="#e0e0e0" d="M-.063 5.619l7.53-.167.005.226-7.53.167z"/><path fill="#e1e1e1" d="M-.063 5.845l7.535-.167.005.226-7.535.167z"/><path fill="#e3e3e3" d="M-.063 6.071l7.54-.168.005.226-7.54.168z"/><path fill="#e4e4e4" d="M-.063 6.297l7.545-.168.005.226-7.545.168z"/><path fill="#e5e5e5" d="M-.063 6.524l7.55-.168.005.226-7.55.168z"/><path fill="#e6e6e6" d="M-.063 6.75l7.555-.168.005.226-7.555.168z"/><path fill="#e7e7e7" d="M-.063 6.976l7.56-.168.005.226-7.56.168z"/><path fill="#e8e8e8" d="M-.063 7.202l7.565-.168.005.226-7.565.168z"/><path fill="#e9e9e9" d="M-.063 7.428l7.57-.168.005.226-7.57.168z"/><path d="M7.512 7.485v.226l-7.573.168v-.226z" fill="#eaeaea"/><path d="M7.512 7.938l-7.573.168V7.88l7.573-.168z" fill="#ebebeb"/><path d="M7.512 8.164l-7.573.168v-.226l7.573-.168z" fill="#ececec"/><path d="M7.512 8.39l-7.573.168v-.226l7.573-.168z" fill="#ededed"/><path d="M7.512 8.616l-7.573.168v-.226l7.573-.168z" fill="#eee"/><path d="M7.512 8.842l-7.573.168v-.226l7.573-.168z" fill="#efefef"/><path d="M7.512 9.064l-7.573.168v-.226l7.573-.168z" fill="#f0f0f0"/><path d="M7.512 9.294l-7.573.168v-.226l7.573-.168z" fill="#f1f1f1"/><path d="M7.512 9.52l-7.573.168v-.226l7.573-.168z" fill="#f2f2f2"/><path d="M7.512 9.746l-7.573.168v-.226l7.573-.168z" fill="#f3f3f3"/><path d="M7.512 9.972l-7.573.168v-.226l7.573-.168z" fill="#f4f4f4"/><path d="M7.512 10.198l-7.573.168v-.226l7.573-.168z" fill="#f5f5f5"/><path d="M7.512 10.425l-7.573.168v-.226l7.573-.168z" fill="#f6f6f6"/><path d="M7.512 10.651l-7.568.168v-.222l7.573-.168z" fill="#f7f7f7"/><path fill="#f8f8f8" d="M-.056 10.819l7.566-.168.005.226-7.566.168z"/><path fill="#f9f9f9" d="M-.051 11.045l7.563-.166.005.226-7.563.166z"/><path fill="#fafafa" d="M-.046 11.27l7.556-.168.005.226-7.556.168z"/><path fill="#fbfbfb" d="M-.041 11.496l7.553-.166.005.226-7.553.166z"/><path fill="#fcfcfc" d="M-.036 11.722l7.546-.168.005.226-7.546.168z"/><path fill="#fdfdfd" d="M-.031 11.948l7.543-.166.005.226-7.543.166z"/><path fill="#fefefe" d="M-.026 12.174l7.536-.167.005.225-7.536.168z"/><path fill="#fff" d="M-.021 12.4l7.533-.166.005.226-7.533.166z"/><path d="M-.001 13.282l-.015-.655 7.528-.167v.822z" fill="#fff"/></g><path d="M10.21 20.622c-1.78-3.477-1.916-5.243-.7-7.74l2.228-4.555H9.114a1.023 1.023 0 00-.923.575l-1.568 3.215a1.719 1.719 0 00.014 1.532z" fill="#fff"/><path d="M6.631 13.65l1.009 1.964a6.454 6.454 0 01.789-3.346l1.927-3.927H9.111a1.024 1.024 0 00-.924.574l-1.571 3.2a1.684 1.684 0 00.015 1.535z" fill="#fff" opacity=".32"/></svg>